ffmpeg version 4.2.7-0ubuntu0.1 Copyright (c) 2000-2022 the FFmpeg developers
  built with gcc 9 (Ubuntu 9.4.0-1ubuntu1~20.04.1)
  configuration: --prefix=/usr --extra-version=0ubuntu0.1 --toolchain=hardened --libdir=/usr/lib/x86_64-linux-gnu --incdir=/usr/include/x86_64-linux-gnu --arch=amd64 --enable-gpl --disable-stripping --enable-avresample --disable-filter=resample --enable-avisynth --enable-gnutls --enable-ladspa --enable-libaom --enable-libass --enable-libbluray --enable-libbs2b --enable-libcaca --enable-libcdio --enable-libcodec2 --enable-libflite --enable-libfontconfig --enable-libfreetype --enable-libfribidi --enable-libgme --enable-libgsm --enable-libjack --enable-libmp3lame --enable-libmysofa --enable-libopenjpeg --enable-libopenmpt --enable-libopus --enable-libpulse --enable-librsvg --enable-librubberband --enable-libshine --enable-libsnappy --enable-libsoxr --enable-libspeex --enable-libssh --enable-libtheora --enable-libtwolame --enable-libvidstab --enable-libvorbis --enable-libvpx --enable-libwavpack --enable-libwebp --enable-libx265 --enable-libxml2 --enable-libxvid --enable-libzmq --enable-libzvbi --enable-lv2 --enable-omx --enable-openal --enable-opencl --enable-opengl --enable-sdl2 --enable-libdc1394 --enable-libdrm --enable-libiec61883 --enable-nvenc --enable-chromaprint --enable-frei0r --enable-libx264 --enable-shared
  libavutil      56. 31.100 / 56. 31.100
  libavcodec     58. 54.100 / 58. 54.100
  libavformat    58. 29.100 / 58. 29.100
  libavdevice    58.  8.100 / 58.  8.100
  libavfilter     7. 57.100 /  7. 57.100
  libavresample   4.  0.  0 /  4.  0.  0
  libswscale      5.  5.100 /  5.  5.100
  libswresample   3.  5.100 /  3.  5.100
  libpostproc    55.  5.100 / 55.  5.100
Routing option strict to both codec and muxer layer
[h264 @ 0x556438bf8e00] Reinit context to 1920x1088, pix_fmt: yuv420p
Input #0, mov,mp4,m4a,3gp,3g2,mj2, from '/var/www/html/project/media/video/original/DJI_20240919165952_0068_Z.MP4':
  Metadata:
    major_brand     : isom
    minor_version   : 512
    compatible_brands: isomiso2avc1mp41
    creation_time   : 2024-09-19T14:59:52.000000Z
    encoder         : Lavf56.15.102
  Duration: 00:00:33.67, start: 0.000000, bitrate: 31142 kb/s
    Stream #0:0(und): Video: h264 (High), 1 reference frame (avc1 / 0x31637661), yuv420p(left), 1920x1080 (1920x1088), 31099 kb/s, 29.97 fps, 29.97 tbr, 30k tbn, 58 tbc (default)
    Metadata:
      creation_time   : 2024-09-19T14:59:52.000000Z
      handler_name    : VideoHandler
    Stream #0:1(und): Data: none (djmd / 0x646D6A64), 38 kb/s
    Metadata:
      creation_time   : 2024-09-19T14:59:52.000000Z
      handler_name    : DJI meta
Input #1, png_pipe, from '/var/www/html/project/static/images/templates/logo.png':
  Duration: N/A, bitrate: N/A
    Stream #1:0: Video: png, 1 reference frame, rgba(pc), 1920x1080 [SAR 2835:2835 DAR 16:9], 25 tbr, 25 tbn, 25 tbc
[Parsed_scale_0 @ 0x556438bfbac0] w:640 h:360 flags:'bilinear' interl:0
[Parsed_scale_2 @ 0x556438c2ea00] w:640 h:360 flags:'bilinear' interl:0
Stream mapping:
  Stream #0:0 (h264) -> scale
  Stream #1:0 (png) -> scale
  overlay -> Stream #0:0 (libx264)
Press [q] to stop, [?] for help
[h264 @ 0x556438c24ec0] Reinit context to 1920x1088, pix_fmt: yuv420p
[Parsed_scale_0 @ 0x556439aa38c0] w:640 h:360 flags:'bilinear' interl:0
[Parsed_scale_2 @ 0x556439aa40c0] w:640 h:360 flags:'bilinear' interl:0
[graph 0 input from stream 0:0 @ 0x556439aa53c0] w:1920 h:1080 pixfmt:yuv420p tb:1/30000 fr:30000/1001 sar:0/1 sws_param:flags=2
[graph 0 input from stream 1:0 @ 0x556439aa6480] w:1920 h:1080 pixfmt:rgba tb:1/25 fr:25/1 sar:2835/2835 sws_param:flags=2
[Parsed_scale_0 @ 0x556439aa38c0] w:1920 h:1080 fmt:yuv420p sar:0/1 -> w:640 h:360 fmt:yuv420p sar:0/1 flags:0x2
[Parsed_setsar_1 @ 0x556439aa3b40] w:640 h:360 sar:0/1 dar:16/9 -> sar:1/1 dar:16/9
[Parsed_scale_2 @ 0x556439aa40c0] w:1920 h:1080 fmt:rgba sar:2835/2835 -> w:640 h:360 fmt:yuva420p sar:1/1 flags:0x2
[Parsed_setsar_3 @ 0x556439aa4300] w:640 h:360 sar:1/1 dar:16/9 -> sar:1/1 dar:16/9
[Parsed_overlay_4 @ 0x556439aa46c0] main w:640 h:360 fmt:yuv420p overlay w:640 h:360 fmt:yuva420p
[Parsed_overlay_4 @ 0x556439aa46c0] [framesync @ 0x556439aa47e8] Selected 1/30000 time base
[Parsed_overlay_4 @ 0x556439aa46c0] [framesync @ 0x556439aa47e8] Sync level 2
[libx264 @ 0x556438c23c00] using SAR=1/1
[libx264 @ 0x556438c23c00] using cpu capabilities: MMX2 SSE2Fast SSSE3 SSE4.2 AVX FMA3 BMI2 AVX2
[libx264 @ 0x556438c23c00] profile High, level 3.0
[libx264 @ 0x556438c23c00] 264 - core 155 r2917 0a84d98 - H.264/MPEG-4 AVC codec - Copyleft 2003-2018 - http://www.videolan.org/x264.html - options: cabac=1 ref=1 deblock=1:0:0 analyse=0x3:0x113 me=hex subme=2 psy=1 psy_rd=1.00:0.00 mixed_ref=0 me_range=16 chroma_me=1 trellis=0 8x8dct=1 cqm=0 deadzone=21,11 fast_pskip=1 chroma_qp_offset=0 threads=11 lookahead_threads=2 sliced_threads=0 nr=0 decimate=1 interlaced=0 bluray_compat=0 constrained_intra=0 bframes=3 b_pyramid=2 b_adapt=1 b_bias=0 direct=1 weightb=1 open_gop=0 weightp=1 keyint=250 keyint_min=25 scenecut=40 intra_refresh=0 rc_lookahead=10 rc=crf mbtree=1 crf=18.0 qcomp=0.60 qpmin=0 qpmax=69 qpstep=4 ip_ratio=1.40 aq=1:1.00
Output #0, mp4, to '/var/www/html/project/media/video/watermarks/DJI_20240919165952_0068_Z.mp4':
  Metadata:
    major_brand     : isom
    minor_version   : 512
    compatible_brands: isomiso2avc1mp41
    encoder         : Lavf58.29.100
    Stream #0:0: Video: h264 (libx264), 1 reference frame (avc1 / 0x31637661), yuv420p, 640x360 [SAR 1:1 DAR 16:9], q=-1--1, 29.97 fps, 30k tbn, 29.97 tbc (default)
    Metadata:
      encoder         : Lavc58.54.100 libx264
    Side data:
      cpb: bitrate max/min/avg: 0/0/0 buffer size: 0 vbv_delay: -1
[Parsed_overlay_4 @ 0x556439aa46c0] [framesync @ 0x556439aa47e8] Sync level 0
No more output streams to write to, finishing.
frame= 1009 fps=108 q=-1.0 Lsize=    4713kB time=00:00:33.56 bitrate=1150.2kbits/s speed=3.61x    
[AVIOContext @ 0x556438bf70c0] Statistics: 0 seeks, 19 writeouts
video:4700kB audio:0kB subtitle:0kB other streams:0kB global headers:0kB muxing overhead: 0.266740%
Input file #0 (/var/www/html/project/media/video/original/DJI_20240919165952_0068_Z.MP4):
  Input stream #0:0 (video): 1009 packets read (130878764 bytes); 1009 frames decoded; 
  Input stream #0:1 (data): 1 packets read (240 bytes); 
  Total: 1010 packets (130879004 bytes) demuxed
Input file #1 (/var/www/html/project/static/images/templates/logo.png):
  Input stream #1:0 (video): 1 packets read (111578 bytes); 1 frames decoded; 
  Total: 1 packets (111578 bytes) demuxed
Output file #0 (/var/www/html/project/media/video/watermarks/DJI_20240919165952_0068_Z.mp4):
  Output stream #0:0 (video): 1009 frames encoded; 1009 packets muxed (4813295 bytes); 
  Total: 1009 packets (4813295 bytes) muxed
[AVIOContext @ 0x556438c30f40] Statistics: 2 seeks, 22 writeouts
[libx264 @ 0x556438c23c00] frame I:5     Avg QP:17.06  size: 64529
[libx264 @ 0x556438c23c00] frame P:273   Avg QP:20.22  size: 12690
[libx264 @ 0x556438c23c00] frame B:731   Avg QP:23.41  size:  1403
[libx264 @ 0x556438c23c00] consecutive B-frames:  3.1%  0.6%  1.2% 95.1%
[libx264 @ 0x556438c23c00] mb I  I16..4:  5.3%  7.7% 87.0%
[libx264 @ 0x556438c23c00] mb P  I16..4:  1.7%  1.1%  1.0%  P16..4: 53.6% 23.9% 13.0%  0.0%  0.0%    skip: 5.6%
[libx264 @ 0x556438c23c00] mb B  I16..4:  0.2%  0.0%  0.0%  B16..8: 14.8%  4.8%  1.5%  direct: 7.6%  skip:71.1%  L0:24.5% L1:33.2% BI:42.3%
[libx264 @ 0x556438c23c00] 8x8 transform intra:21.8% inter:47.4%
[libx264 @ 0x556438c23c00] coded y,uvDC,uvAC intra: 60.5% 55.2% 35.7% inter: 21.2% 8.9% 1.4%
[libx264 @ 0x556438c23c00] i16 v,h,dc,p: 39% 24% 33%  5%
[libx264 @ 0x556438c23c00] i8 v,h,dc,ddl,ddr,vr,hd,vl,hu: 27% 22% 31%  4%  2%  2%  3%  3%  6%
[libx264 @ 0x556438c23c00] i4 v,h,dc,ddl,ddr,vr,hd,vl,hu: 20% 26% 11%  8%  5%  4%  7%  7% 14%
[libx264 @ 0x556438c23c00] i8c dc,h,v,p: 58% 23% 14%  5%
[libx264 @ 0x556438c23c00] Weighted P-Frames: Y:23.4% UV:0.0%
[libx264 @ 0x556438c23c00] kb/s:1143.58
[AVIOContext @ 0x556438c00040] Statistics: 131090403 bytes read, 2 seeks
[AVIOContext @ 0x556438c0f840] Statistics: 111578 bytes read, 0 seeks
